<?xml version="1.0" encoding="utf-8"?>
<!-- Generator: Adobe Illustrator 25.1.0, SVG Export Plug-In . SVG Version: 6.00 Build 0)  -->
<svg version="1.1" id="regular" xmlns="http://www.w3.org/2000/svg" xmlns:xlink="http://www.w3.org/1999/xlink" x="0px" y="0px"
	 viewBox="0 0 512 512" style="enable-background:new 0 0 512 512;" xml:space="preserve">
<style type="text/css">
	.st0{fill:#FFFFFF;}
</style>
<path class="st0" d="M10.1,418c47.4,30.1,102.6,46,159.5,46c83.4,0,159.9-32,215.3-90.2c53-55.7,82.2-130.5,80.7-206.4
	c20.1-17.2,43.7-50,43.7-82c0-12.3-13.3-20.1-24.1-13.8c-18.9,11.1-36.1,14-53.8,9c-36.2-35.2-90-42.7-135.3-18.2
	c-39.6,21.3-61.7,60.4-59.7,103c-67-8.2-128.8-41.7-172-93.9c-7.1-8.5-20.5-7.5-26.2,2.1c-20.8,35.6-20.6,76.8-2.5,110.1
	c-8.6,1.5-13.9,8.7-13.9,16.6c0,33.5,15.1,64.2,39.3,85.2c-4.5,4.4-6,10.8-4.1,16.6c10.7,32,34.8,57.1,65,69.6
	c-32.8,15.7-69.1,20.9-101.5,16.9C3.9,386.4-4.4,408.9,10.1,418L10.1,418z M174,377.2c12-9.2,5.6-28.4-9.4-28.7
	c-26.5-0.6-50.5-13.6-65.5-34.1c7.2-0.5,14.7-1.6,21.8-3.5c16.2-4.4,15.5-27.8-1-31.1c-29.9-6-53.4-27.8-62.2-55.9
	c8,2,16.2,3.1,24.4,3.2c16.2,0.1,22.3-20.7,9.1-29.4c-29.8-19.6-42.5-54.2-34-86.8c52,52.7,122.5,84.4,197.1,88
	c10.7,0.7,18.7-9.4,16.4-19.6c-10.1-43.9,14.4-74.7,40.7-88.9c26.1-14.1,67.9-18.5,100,15.2c9.5,10,41.7,10.4,58.1,6.6
	c-7.3,13.8-18.6,26.9-29.2,34.3c-4.5,3.2-7.1,8.4-6.8,13.9c3.4,70.1-22.7,139.8-71.6,191.1C312.4,403.5,244.2,432,169.6,432
	c-29.7,0-58.7-4.8-86.2-14.1C116.3,411.5,147.5,397.6,174,377.2L174,377.2z"/>
</svg>
