<svg width="161" height="147" viewBox="0 0 161 147" fill="none" xmlns="http://www.w3.org/2000/svg">
<path d="M27.8745 54.8993C39.3695 54.8993 48.6879 45.5815 48.6879 34.0875C48.6879 22.5934 39.3695 13.2756 27.8745 13.2756C16.3796 13.2756 7.06113 22.5934 7.06113 34.0875C7.06113 45.5815 16.3796 54.8993 27.8745 54.8993Z" fill="#1F2049"/>
<path d="M133.115 54.8993C144.61 54.8993 153.928 45.5815 153.928 34.0875C153.928 22.5934 144.61 13.2756 133.115 13.2756C121.62 13.2756 112.301 22.5934 112.301 34.0875C112.301 45.5815 121.62 54.8993 133.115 54.8993Z" fill="#4954F4"/>
<path d="M101.319 47.7859C95.3981 52.4872 88.0604 55.0461 80.5 55.0461C72.9397 55.0461 65.6019 52.4872 59.6813 47.7859C52.673 51.9292 48.0537 58.7679 48.0537 66.4732V135.293C48.0537 141.191 53.7935 146.011 60.8124 146.011H100.177C107.196 146.011 112.936 141.191 112.936 135.293V66.4838C112.936 58.7784 108.327 51.9292 101.319 47.7859Z" fill="#EF4C5F"/>
<path d="M80.4947 48.4306C93.8695 48.4306 104.712 37.589 104.712 24.2153C104.712 10.8416 93.8695 0 80.4947 0C67.12 0 56.2776 10.8416 56.2776 24.2153C56.2776 37.589 67.12 48.4306 80.4947 48.4306Z" fill="#EF4C5F"/>
<path d="M151.011 54.3496C145.945 58.4443 139.629 60.678 133.115 60.678C126.601 60.678 120.284 58.4443 115.219 54.3496L114.69 54.6773C117.473 57.919 119.032 62.0326 119.098 66.304V136.064C119.075 137.422 118.711 138.752 118.041 139.933H149.975C156.011 139.933 160.947 135.705 160.947 130.6V70.6376C161 63.9258 157.036 57.9645 151.011 54.3496Z" fill="#4954F4"/>
<path d="M41.8911 136.064V66.304C41.957 62.0326 43.5166 57.919 46.299 54.6773L45.7705 54.3496C40.724 58.4799 34.3958 60.7224 27.8745 60.6915C21.3532 60.7224 15.025 58.4799 9.9786 54.3496C3.95338 57.9645 0 63.9258 0 70.6376V130.6C0 135.737 4.93645 139.933 10.9722 139.933H42.9059C42.2507 138.748 41.9018 137.418 41.8911 136.064Z" fill="#1F2049"/>
</svg>
